# xmcd
#
# Track frame offsets:
#	150
#	15079
#	31922
#	45236
#	59381
#	74611
#	95226
#	114386
#	134825
#	154969
#	171846
#
# Disc length: 2542 seconds
#
# Revision: 0
# Processed by: cddbd v1.5.2PL0 Copyright (c) Steve Scherf et al.
# Submitted via: audiograbber 1.83.01
#
DISCID=9309ec0b
DTITLE=Various Artist - Country Radio October 2013
DYEAR=2013
DGENRE=Country
TTITLE0=Chillin It Cole Swindell
TTITLE1=Blue Skies Uncle Kracker
TTITLE2=Shake it off Ash Bowers
TTITLE3=thats my kind of night Luke Bryan
TTITLE4=Days of gold single edit Jake Owen
TTITLE5=I can't change the world radio edit Brad Paisley
TTITLE6=See you again American idol live Carrie Underwood
TTITLE7=Sweet Annie Zac Brown Band
TTITLE8=I hold on Dierks Bentley
TTITLE9=Kiss you there Ronnie Dunn
TTITLE10=Dont let me be lonely The Band Perry
EXTD=
EXTT0=
EXTT1=
EXTT2=
EXTT3=
EXTT4=
EXTT5=
EXTT6=
EXTT7=
EXTT8=
EXTT9=
EXTT10=
PLAYORDER=
